<svg xmlns="http://www.w3.org/2000/svg" xmlns:xlink="http://www.w3.org/1999/xlink" contentStyleType="text/css" data-diagram-type="DESCRIPTION" height="246px" preserveAspectRatio="none" style="width:536px;height:246px;background:#000000;" version="1.1" viewBox="0 0 536 246" width="536px" zoomAndPan="magnify"><defs/><g><!--entity Server--><g class="entity" data-entity="Server" data-source-line="8" data-uid="ent0002" id="entity_Server"><polygon fill="#B388F5" points="26,107,36,97,107.8428,97,107.8428,133.4883,97.8428,143.4883,26,143.4883,26,107" style="stroke:#181818;stroke-width:0.5;"/><line style="stroke:#181818;stroke-width:0.5;" x1="97.8428" x2="107.8428" y1="107" y2="97"/><line style="stroke:#181818;stroke-width:0.5;" x1="26" x2="97.8428" y1="107" y2="107"/><line style="stroke:#181818;stroke-width:0.5;" x1="97.8428" x2="97.8428" y1="107" y2="143.4883"/><text fill="#000000" font-family="sans-serif" font-size="14" lengthAdjust="spacing" textLength="41.8428" x="41" y="130.5352">Server</text></g><!--entity Gateway--><g class="entity" data-entity="Gateway" data-source-line="9" data-uid="ent0003" id="entity_Gateway"><polygon fill="#63D7C6" points="203.84,107,213.84,97,300.5578,97,300.5578,133.4883,290.5578,143.4883,203.84,143.4883,203.84,107" style="stroke:#181818;stroke-width:0.5;"/><line style="stroke:#181818;stroke-width:0.5;" x1="290.5578" x2="300.5578" y1="107" y2="97"/><line style="stroke:#181818;stroke-width:0.5;" x1="203.84" x2="290.5578" y1="107" y2="107"/><line style="stroke:#181818;stroke-width:0.5;" x1="290.5578" x2="290.5578" y1="107" y2="143.4883"/><text fill="#000000" font-family="sans-serif" font-size="14" lengthAdjust="spacing" textLength="56.7178" x="218.84" y="130.5352">Gateway</text></g><!--entity Client1--><g class="entity" data-entity="Client1" data-source-line="10" data-uid="ent0004" id="entity_Client1"><polygon fill="#B388F5" points="421.56,26,431.56,16,514.3471,16,514.3471,52.4883,504.3471,62.4883,421.56,62.4883,421.56,26" style="stroke:#181818;stroke-width:0.5;"/><line style="stroke:#181818;stroke-width:0.5;" x1="504.3471" x2="514.3471" y1="26" y2="16"/><line style="stroke:#181818;stroke-width:0.5;" x1="421.56" x2="504.3471" y1="26" y2="26"/><line style="stroke:#181818;stroke-width:0.5;" x1="504.3471" x2="504.3471" y1="26" y2="62.4883"/><text fill="#000000" font-family="sans-serif" font-size="14" lengthAdjust="spacing" textLength="52.7871" x="436.56" y="49.5352">Client 1</text></g><!--entity Client2--><g class="entity" data-entity="Client2" data-source-line="11" data-uid="ent0005" id="entity_Client2"><polygon fill="#B388F5" points="421.56,107,431.56,97,514.3471,97,514.3471,133.4883,504.3471,143.4883,421.56,143.4883,421.56,107" style="stroke:#181818;stroke-width:0.5;"/><line style="stroke:#181818;stroke-width:0.5;" x1="504.3471" x2="514.3471" y1="107" y2="97"/><line style="stroke:#181818;stroke-width:0.5;" x1="421.56" x2="504.3471" y1="107" y2="107"/><line style="stroke:#181818;stroke-width:0.5;" x1="504.3471" x2="504.3471" y1="107" y2="143.4883"/><text fill="#000000" font-family="sans-serif" font-size="14" lengthAdjust="spacing" textLength="52.7871" x="436.56" y="130.5352">Client 2</text></g><!--entity Client3--><g class="entity" data-entity="Client3" data-source-line="12" data-uid="ent0006" id="entity_Client3"><polygon fill="#B388F5" points="421.56,188,431.56,178,514.3471,178,514.3471,214.4883,504.3471,224.4883,421.56,224.4883,421.56,188" style="stroke:#181818;stroke-width:0.5;"/><line style="stroke:#181818;stroke-width:0.5;" x1="504.3471" x2="514.3471" y1="188" y2="178"/><line style="stroke:#181818;stroke-width:0.5;" x1="421.56" x2="504.3471" y1="188" y2="188"/><line style="stroke:#181818;stroke-width:0.5;" x1="504.3471" x2="504.3471" y1="188" y2="224.4883"/><text fill="#000000" font-family="sans-serif" font-size="14" lengthAdjust="spacing" textLength="52.7871" x="436.56" y="211.5352">Client 3</text></g><!--link Server to Gateway--><g class="link" data-entity-1="Server" data-entity-2="Gateway" data-source-line="15" data-uid="lnk7" id="link_Server_Gateway"><path d="M108.14,120.25 C136.28,120.25 167.97,120.25 197.61,120.25" fill="none" id="Server-to-Gateway" style="stroke:#63D7C6;stroke-width:1;"/><polygon fill="#63D7C6" points="203.61,120.25,194.61,116.25,198.61,120.25,194.61,124.25,203.61,120.25" style="stroke:#63D7C6;stroke-width:1;"/><text fill="#DEDEDE" font-family="sans-serif" font-size="13" lengthAdjust="spacing" textLength="34.2583" x="138.84" y="116.8184">Serial</text></g><!--link Gateway to Client1--><g class="link" data-entity-1="Gateway" data-entity-2="Client1" data-source-line="17" data-uid="lnk8" id="link_Gateway_Client1"><path d="M300.91,102.17 C336.83,88.55 380.1793,72.1262 415.6193,58.6962" fill="none" id="Gateway-to-Client1" style="stroke:#63D7C6;stroke-width:1;stroke-dasharray:1,3;"/><polygon fill="#63D7C6" points="421.23,56.57,411.3966,56.0188,416.5545,58.3418,414.2315,63.4997,421.23,56.57" style="stroke:#63D7C6;stroke-width:1;"/></g><!--link Gateway to Client2--><g class="link" data-entity-1="Gateway" data-entity-2="Client2" data-source-line="18" data-uid="lnk9" id="link_Gateway_Client2"><path d="M300.91,120.25 C336.83,120.25 379.79,120.25 415.23,120.25" fill="none" id="Gateway-to-Client2" style="stroke:#63D7C6;stroke-width:1;stroke-dasharray:1,3;"/><polygon fill="#63D7C6" points="421.23,120.25,412.23,116.25,416.23,120.25,412.23,124.25,421.23,120.25" style="stroke:#63D7C6;stroke-width:1;"/><text fill="#DEDEDE" font-family="sans-serif" font-size="13" lengthAdjust="spacing" textLength="59.5791" x="331.56" y="116.8184">ESP-NOW</text></g><!--link Gateway to Client3--><g class="link" data-entity-1="Gateway" data-entity-2="Client3" data-source-line="19" data-uid="lnk10" id="link_Gateway_Client3"><path d="M300.91,138.32 C336.83,151.94 380.1793,168.3638 415.6193,181.7938" fill="none" id="Gateway-to-Client3" style="stroke:#63D7C6;stroke-width:1;stroke-dasharray:1,3;"/><polygon fill="#63D7C6" points="421.23,183.92,414.2315,176.9903,416.5545,182.1482,411.3966,184.4712,421.23,183.92" style="stroke:#63D7C6;stroke-width:1;"/></g><!--SRC=[VOv1IyGm58Jl-HNF87XgGrkzx45GMVQog531WtZ89cytWJG9oQlB_dlJhKgzx6sORvYPA-kL6pM28Ofv9KIIn_fWoOoxCMDImHDwgbKOnAEJcPgskxqJ_SbZ9eDabKYupyAWr5aCqdeHdVGq3auKFc0TYsJi1aAofKYI3Puvt1DGW6GFXa3RXEhibrWPYi6NP6O-b5izfYzCizv8mgCymVNR-c4xMqzkQcr0Pk2pXeOlKRj4xJ_KBL77f_M4xlmm6nipcxUXgkx_fbV0YskbA_5Vh_hGWGZrPydz_Bd0sgbZtRzMpo_l_4AkOzy0]--></g></svg>